<svg class="product-icon" version="1.1" xmlns="http://www.w3.org/2000/svg" xmlns:xlink="http://www.w3.org/1999/xlink" x="0px" y="0px" viewBox="0 0 512 512" enable-background="new 0 0 512 512" xml:space="preserve" focusable="false" aria-hidden="true"><g><path fill="#6100A8" d="M134,400H78c-0.552,0-1.052-0.224-1.414-0.586S76,398.552,76,398V162c0-0.552,0.224-1.052,0.586-1.414
                S77.448,160,78,160h56c0.552,0,1.052,0.224,1.414,0.586S136,161.448,136,162v236c0,0.552-0.224,1.052-0.586,1.414
                S134.552,400,134,400z"></path><path fill="#7222C6" d="M254,400h-92c-0.552,0-1.052-0.224-1.414-0.586S160,398.552,160,398V114c0-0.552,0.224-1.052,0.586-1.414
                S161.448,112,162,112h92c0.552,0,1.052,0.224,1.414,0.586S256,113.448,256,114v284c0,0.552-0.224,1.052-0.586,1.414
                S254.552,400,254,400z"></path><path fill="#963CE1" d="M444.77,373.863l-85.829,26.232c-0.529,0.162-1.073,0.093-1.526-0.148s-0.812-0.655-0.973-1.184
                L273.901,126.63c-0.16-0.528-0.091-1.07,0.149-1.521c0.241-0.451,0.653-0.811,1.18-0.972l85.829-26.232
                c0.529-0.162,1.073-0.093,1.526,0.148s0.812,0.655,0.973,1.184l82.542,272.133c0.16,0.528,0.091,1.07-0.149,1.521
                C445.71,373.342,445.297,373.702,444.77,373.863z"></path></g></svg>