<svg class="product-icon" version="1.1" xmlns="http://www.w3.org/2000/svg" xmlns:xlink="http://www.w3.org/1999/xlink" x="0px" y="0px" viewBox="0 0 512 512" enable-background="new 0 0 512 512" xml:space="preserve" focusable="false" aria-hidden="true"><g><path fill="#DC2878" d="M182,358h-68c-0.55,0-1.05-0.225-1.412-0.587C112.225,357.05,112,356.55,112,356V156
                c0-0.552,0.224-1.052,0.586-1.414S113.448,154,114,154h68c0.55,0,1.05,0.225,1.413,0.587C183.775,154.95,184,155.45,184,156v200
                c0,0.552-0.224,1.052-0.586,1.414S182.552,358,182,358z"></path><path fill="#FF4C98" d="M372.106,248.243l34-58.89c0.275-0.476,0.33-1.022,0.197-1.517c-0.133-0.495-0.453-0.94-0.93-1.215
                l-173.205-100c-0.478-0.276-1.023-0.332-1.518-0.2c-0.494,0.132-0.938,0.454-1.214,0.932l-34,58.89
                c-0.275,0.476-0.33,1.022-0.197,1.517c0.133,0.495,0.453,0.94,0.93,1.215l173.205,100c0.478,0.276,1.023,0.332,1.518,0.2
                C371.386,249.042,371.83,248.721,372.106,248.243z"></path><path fill="#AF0D5B" d="M372.106,263.757l34,58.89c0.275,0.476,0.33,1.022,0.197,1.517c-0.133,0.495-0.453,0.94-0.93,1.215
                l-173.205,100c-0.478,0.276-1.023,0.332-1.518,0.2c-0.494-0.132-0.938-0.454-1.214-0.932l-34-58.89
                c-0.275-0.476-0.33-1.022-0.197-1.517c0.133-0.495,0.453-0.94,0.93-1.215l173.205-100c0.478-0.276,1.023-0.332,1.518-0.2
                C371.386,262.958,371.83,263.279,372.106,263.757z"></path></g></svg>