<svg class="product-icon" version="1.1" xmlns="http://www.w3.org/2000/svg" xmlns:xlink="http://www.w3.org/1999/xlink" x="0px" y="0px" viewBox="0 0 512 512" enable-background="new 0 0 512 512" xml:space="preserve" focusable="false" aria-hidden="true"><g><path fill="#B80000" d="M302,424h-68c-0.552,0-1.052-0.224-1.414-0.586S232,422.552,232,422V306c0-0.552,0.224-1.052,0.586-1.414
                S233.448,304,234,304h68c0.552,0,1.052,0.224,1.414,0.586S304,305.448,304,306v116c0,0.552-0.224,1.052-0.586,1.414
                S302.552,424,302,424z"></path><path fill="#EB0000" d="M422,280H234c-0.552,0-1.052-0.224-1.414-0.586S232,278.552,232,278V90c0-0.552,0.224-1.052,0.586-1.414
                S233.448,88,234,88h188c0.552,0,1.052,0.224,1.414,0.586S424,89.448,424,90v188c0,0.552-0.224,1.052-0.586,1.414
                S422.552,280,422,280z"></path><path fill="#D30000" d="M206,328H90c-0.552,0-1.052-0.224-1.414-0.586S88,326.552,88,326V210c0-0.552,0.224-1.052,0.586-1.414
                S89.448,208,90,208h116c0.552,0,1.052,0.224,1.414,0.586S208,209.448,208,210v116c0,0.552-0.224,1.052-0.586,1.414
                S206.552,328,206,328z"></path></g></svg>