<svg class="product-icon" version="1.1" xmlns="http://www.w3.org/2000/svg" xmlns:xlink="http://www.w3.org/1999/xlink" x="0px" y="0px" viewBox="0 0 512 512" enable-background="new 0 0 512 512" xml:space="preserve" focusable="false" aria-hidden="true"><g><path fill="#A13104" d="M122,304H78c-0.552,0-1.052-0.224-1.414-0.586S76,302.552,76,302v-92c0-0.552,0.224-1.052,0.586-1.414
                S77.448,208,78,208h44c0.552,0,1.052,0.224,1.414,0.586S124,209.448,124,210v92c0,0.552-0.224,1.052-0.586,1.414
                S122.552,304,122,304z"></path><path fill="#D24712" d="M230,376h-80c-0.552,0-1.052-0.224-1.414-0.586S148,374.552,148,374V138c0-0.552,0.224-1.052,0.586-1.414
                S149.448,136,150,136h80c0.552,0,1.052,0.224,1.414,0.586S232,137.448,232,138v236c0,0.552-0.224,1.052-0.586,1.414
                S230.552,376,230,376z"></path><path fill="#FA6400" d="M422,424H258c-0.552,0-1.052-0.224-1.414-0.586S256,422.552,256,422V90c0-0.552,0.224-1.052,0.586-1.414
                S257.448,88,258,88h164c0.552,0,1.052,0.224,1.414,0.586S424,89.448,424,90v332c0,0.552-0.224,1.052-0.586,1.414
                S422.552,424,422,424z"></path></g></svg>